<svg xmlns="http://www.w3.org/2000/svg" width="26" height="22" viewBox="0 0 26 22">
  <metadata><?xpacket begin="﻿" id="W5M0MpCehiHzreSzNTczkc9d"?>
<x:xmpmeta xmlns:x="adobe:ns:meta/" x:xmptk="Adobe XMP Core 5.6-c138 79.159824, 2016/09/14-01:09:01        ">
   <rdf:RDF xmlns:rdf="http://www.w3.org/1999/02/22-rdf-syntax-ns#">
      <rdf:Description rdf:about=""/>
   </rdf:RDF>
</x:xmpmeta>
                                                                                                    
                                                                                                    
                                                                                                    
                                                                                                    
                                                                                                    
                                                                                                    
                                                                                                    
                                                                                                    
                                                                                                    
                                                                                                    
                                                                                                    
                                                                                                    
                                                                                                    
                                                                                                    
                                                                                                    
                                                                                                    
                                                                                                    
                                                                                                    
                                                                                                    
                                                                                                    
                           
<?xpacket end="w"?></metadata>
<defs>
    <style>
      .cls-1 {
        fill: #4876c3;
        fill-rule: evenodd;
      }
    </style>
  </defs>
  <path id="home" class="cls-1" d="M1260.64,6521.98a0.779,0.779,0,0,0-.78.77v7.73h-15.75v-7.73a0.77,0.77,0,0,0-.77-0.77,0.779,0.779,0,0,0-.78.77v8.49a0.771,0.771,0,0,0,.78.76h17.3a0.771,0.771,0,0,0,.78-0.76v-8.49A0.779,0.779,0,0,0,1260.64,6521.98Zm4.13,0.23-12.23-12.01a0.785,0.785,0,0,0-1.1,0l-12.24,12.01a0.76,0.76,0,0,0,0,1.08,0.834,0.834,0,0,0,.55.22,0.815,0.815,0,0,0,.55-0.22l11.69-11.47,11.69,11.47a0.782,0.782,0,0,0,1.09-.01A0.732,0.732,0,0,0,1264.77,6522.21Z" transform="translate(-1239 -6510)"/>
</svg>
