<svg xmlns="http://www.w3.org/2000/svg" width="25" height="17" viewBox="0 0 25 17">
  <metadata><?xpacket begin="﻿" id="W5M0MpCehiHzreSzNTczkc9d"?>
<x:xmpmeta xmlns:x="adobe:ns:meta/" x:xmptk="Adobe XMP Core 5.6-c138 79.159824, 2016/09/14-01:09:01        ">
   <rdf:RDF xmlns:rdf="http://www.w3.org/1999/02/22-rdf-syntax-ns#">
      <rdf:Description rdf:about=""/>
   </rdf:RDF>
</x:xmpmeta>
                                                                                                    
                                                                                                    
                                                                                                    
                                                                                                    
                                                                                                    
                                                                                                    
                                                                                                    
                                                                                                    
                                                                                                    
                                                                                                    
                                                                                                    
                                                                                                    
                                                                                                    
                                                                                                    
                                                                                                    
                                                                                                    
                                                                                                    
                                                                                                    
                                                                                                    
                                                                                                    
                           
<?xpacket end="w"?></metadata>
<defs>
    <style>
      .cls-1 {
        fill: #4876c3;
        fill-rule: evenodd;
      }
    </style>
  </defs>
  <path id="mail" class="cls-1" d="M1453.6,6585.3l-8.1,7.13-8.1-7.13a0.779,0.779,0,0,0-1.03,1.17l8.62,7.58a0.763,0.763,0,0,0,.51.2,0.808,0.808,0,0,0,.52-0.2l8.61-7.58A0.779,0.779,0,0,0,1453.6,6585.3Zm2.07-3.3h-20.34a2.339,2.339,0,0,0-2.33,2.33v12.34a2.339,2.339,0,0,0,2.33,2.33h20.34a2.339,2.339,0,0,0,2.33-2.33v-12.34A2.339,2.339,0,0,0,1455.67,6582Zm0.77,14.67a0.764,0.764,0,0,1-.77.77h-20.34a0.764,0.764,0,0,1-.77-0.77v-12.34a0.773,0.773,0,0,1,.77-0.78h20.34a0.773,0.773,0,0,1,.77.78v12.34Z" transform="translate(-1433 -6582)"/>
</svg>
