<svg xmlns="http://www.w3.org/2000/svg" width="22.03" height="23" viewBox="0 0 22.03 23">
  <metadata><?xpacket begin="﻿" id="W5M0MpCehiHzreSzNTczkc9d"?>
<x:xmpmeta xmlns:x="adobe:ns:meta/" x:xmptk="Adobe XMP Core 5.6-c138 79.159824, 2016/09/14-01:09:01        ">
   <rdf:RDF xmlns:rdf="http://www.w3.org/1999/02/22-rdf-syntax-ns#">
      <rdf:Description rdf:about=""/>
   </rdf:RDF>
</x:xmpmeta>
                                                                                                    
                                                                                                    
                                                                                                    
                                                                                                    
                                                                                                    
                                                                                                    
                                                                                                    
                                                                                                    
                                                                                                    
                                                                                                    
                                                                                                    
                                                                                                    
                                                                                                    
                                                                                                    
                                                                                                    
                                                                                                    
                                                                                                    
                                                                                                    
                                                                                                    
                                                                                                    
                           
<?xpacket end="w"?></metadata>
<defs>
    <style>
      .cls-1 {
        fill: #4876c3;
        fill-rule: evenodd;
      }
    </style>
  </defs>
  <path id="phone_1" data-name="phone 1" class="cls-1" d="M1091.03,6582.01a10,10,0,0,0-7.17-3.01,0.815,0.815,0,0,0,0,1.63,8.388,8.388,0,0,1,6.03,2.54,8.6,8.6,0,0,1,2.5,6.12,0.805,0.805,0,1,0,1.61,0A10.3,10.3,0,0,0,1091.03,6582.01Zm-3.3,7.28a0.8,0.8,0,1,0,1.6,0,5.514,5.514,0,0,0-5.47-5.55h0a0.8,0.8,0,0,0-.8.81,0.813,0.813,0,0,0,.8.82A3.9,3.9,0,0,1,1087.73,6589.29Zm-1.78,4.15a2.422,2.422,0,0,0-2.15,1.31,0.816,0.816,0,0,0,.21,1.13,0.8,0.8,0,0,0,1.12-.21,0.858,0.858,0,0,1,.73-0.6,10.4,10.4,0,0,1,3.71,2.76,0.919,0.919,0,0,1-.01.59,2.8,2.8,0,0,1-1.38,1.76,2.525,2.525,0,0,1-2.06-.07,22.667,22.667,0,0,1-7.45-4.92h0a22.813,22.813,0,0,1-4.84-7.55,2.619,2.619,0,0,1-.07-2.1,2.772,2.772,0,0,1,1.73-1.39,0.777,0.777,0,0,1,.58-0.01,10.557,10.557,0,0,1,2.72,3.75,0.869,0.869,0,0,1-.58.75,0.832,0.832,0,0,0-.22,1.14,0.807,0.807,0,0,0,1.12.21,2.455,2.455,0,0,0,1.29-2.18c-0.07-1.3-2.57-4.75-3.76-5.2a2.426,2.426,0,0,0-1.66-.01,4.308,4.308,0,0,0-2.68,2.27,4.213,4.213,0,0,0,.04,3.39,24.71,24.71,0,0,0,5.19,8.08l0.02,0.02a24.4,24.4,0,0,0,7.96,5.26,4.762,4.762,0,0,0,1.79.38,3.547,3.547,0,0,0,1.55-.34,4.338,4.338,0,0,0,2.23-2.72,2.483,2.483,0,0,0-.01-1.68C1090.63,6596.05,1087.23,6593.51,1085.95,6593.44Z" transform="translate(-1071.97 -6579)"/>
</svg>
