<svg xmlns="http://www.w3.org/2000/svg" width="27" height="27" viewBox="0 0 27 27">
  <metadata><?xpacket begin="﻿" id="W5M0MpCehiHzreSzNTczkc9d"?>
<x:xmpmeta xmlns:x="adobe:ns:meta/" x:xmptk="Adobe XMP Core 5.6-c138 79.159824, 2016/09/14-01:09:01        ">
   <rdf:RDF xmlns:rdf="http://www.w3.org/1999/02/22-rdf-syntax-ns#">
      <rdf:Description rdf:about=""/>
   </rdf:RDF>
</x:xmpmeta>
                                                                                                    
                                                                                                    
                                                                                                    
                                                                                                    
                                                                                                    
                                                                                                    
                                                                                                    
                                                                                                    
                                                                                                    
                                                                                                    
                                                                                                    
                                                                                                    
                                                                                                    
                                                                                                    
                                                                                                    
                                                                                                    
                                                                                                    
                                                                                                    
                                                                                                    
                                                                                                    
                           
<?xpacket end="w"?></metadata>
<defs>
    <style>
      .cls-1 {
        fill: #4876c3;
        fill-rule: evenodd;
      }
    </style>
  </defs>
  <path id="Forma_1" data-name="Forma 1" class="cls-1" d="M1355.88,6707.27c3.94,0,6-2.18,6-4.32,0.01-1.59-.93-2.38-1.91-3.21l-0.84-.65a1.224,1.224,0,0,1-.58-0.97,1.527,1.527,0,0,1,.61-1.08l0.03-.03a3.9,3.9,0,0,0,1.92-3.26,3.837,3.837,0,0,0-1.62-3.09h1.39a0.06,0.06,0,0,0,.04-0.01l1.2-.75a0.1,0.1,0,0,0,.04-0.1,0.1,0.1,0,0,0-.09-0.07h-4.18a6.239,6.239,0,0,0-4.31,1.37,4.1,4.1,0,0,0-1.46,3.06,3.6,3.6,0,0,0,3.78,3.59c0.24,0,.5-0.02.73-0.04l-0.03.08a1.9,1.9,0,0,0-.19.81,2.261,2.261,0,0,0,.64,1.5l0.04,0.05-0.07.01a9.754,9.754,0,0,0-4.29,1.05,3.269,3.269,0,0,0-1.75,2.79C1350.98,6705.63,1352.49,6707.27,1355.88,6707.27Zm1.1-10.16c-2.02,0-2.85-2.65-2.85-4.07a2.58,2.58,0,0,1,.5-1.69,2.089,2.089,0,0,1,1.6-.75c1.85,0,2.87,2.48,2.87,4.2a2.33,2.33,0,0,1-.57,1.67A2.3,2.3,0,0,1,1356.98,6697.11Zm-2.03,4.05a9.036,9.036,0,0,1,2.39-.36,4.271,4.271,0,0,1,.53.02c1.68,1.19,2.49,1.82,2.49,3.02,0,1.52-1.29,2.47-3.36,2.47-2.4,0-4.02-1.12-4.02-2.79A2.494,2.494,0,0,1,1354.95,6701.16Zm7.46-2.1h2.19v2.21a0.09,0.09,0,0,0,.09.09h0.95a0.09,0.09,0,0,0,.09-0.09v-2.21h2.2a0.09,0.09,0,0,0,.09-0.09v-0.96a0.09,0.09,0,0,0-.09-0.09h-2.2v-2.19a0.09,0.09,0,0,0-.09-0.09h-0.95a0.09,0.09,0,0,0-.09.09v2.19h-2.19a0.09,0.09,0,0,0-.09.09v0.96A0.09,0.09,0,0,0,1362.41,6699.06ZM1346,6685v27h27v-27h-27Zm25.33,25.33h-23.66v-23.66h23.66v23.66Z" transform="translate(-1346 -6685)"/>
</svg>
