<svg xmlns="http://www.w3.org/2000/svg" width="27" height="27" viewBox="0 0 27 27">
  <metadata><?xpacket begin="﻿" id="W5M0MpCehiHzreSzNTczkc9d"?>
<x:xmpmeta xmlns:x="adobe:ns:meta/" x:xmptk="Adobe XMP Core 5.6-c138 79.159824, 2016/09/14-01:09:01        ">
   <rdf:RDF xmlns:rdf="http://www.w3.org/1999/02/22-rdf-syntax-ns#">
      <rdf:Description rdf:about=""/>
   </rdf:RDF>
</x:xmpmeta>
                                                                                                    
                                                                                                    
                                                                                                    
                                                                                                    
                                                                                                    
                                                                                                    
                                                                                                    
                                                                                                    
                                                                                                    
                                                                                                    
                                                                                                    
                                                                                                    
                                                                                                    
                                                                                                    
                                                                                                    
                                                                                                    
                                                                                                    
                                                                                                    
                                                                                                    
                                                                                                    
                           
<?xpacket end="w"?></metadata>
<defs>
    <style>
      .cls-1 {
        fill: #4876c3;
        fill-rule: evenodd;
      }
    </style>
  </defs>
  <path id="Forma_1" data-name="Forma 1" class="cls-1" d="M1239,6685v27h27v-27h-27Zm25.33,25.33h-23.66v-23.66h23.66v23.66Zm-7.49-20.6h-8.68a4.439,4.439,0,0,0-4.43,4.43v8.69a4.436,4.436,0,0,0,4.43,4.42h8.68a4.436,4.436,0,0,0,4.43-4.42v-8.69A4.439,4.439,0,0,0,1256.84,6689.73Zm2.52,13.12a2.52,2.52,0,0,1-2.52,2.51h-8.68a2.52,2.52,0,0,1-2.52-2.51v-8.69a2.522,2.522,0,0,1,2.52-2.52h8.68a2.522,2.522,0,0,1,2.52,2.52v8.69Zm-2.2-7.93a1.07,1.07,0,1,1,1.07-1.07,1.071,1.071,0,0,1-1.07,1.07h0Zm-4.66-.93a4.515,4.515,0,1,0,4.52,4.51A4.52,4.52,0,0,0,1252.5,6693.99Zm0,7.12a2.61,2.61,0,1,1,2.61-2.61A2.612,2.612,0,0,1,1252.5,6701.11Z" transform="translate(-1239 -6685)"/>
</svg>
