<svg xmlns="http://www.w3.org/2000/svg" width="27" height="27" viewBox="0 0 27 27">
  <metadata><?xpacket begin="﻿" id="W5M0MpCehiHzreSzNTczkc9d"?>
<x:xmpmeta xmlns:x="adobe:ns:meta/" x:xmptk="Adobe XMP Core 5.6-c138 79.159824, 2016/09/14-01:09:01        ">
   <rdf:RDF xmlns:rdf="http://www.w3.org/1999/02/22-rdf-syntax-ns#">
      <rdf:Description rdf:about=""/>
   </rdf:RDF>
</x:xmpmeta>
                                                                                                    
                                                                                                    
                                                                                                    
                                                                                                    
                                                                                                    
                                                                                                    
                                                                                                    
                                                                                                    
                                                                                                    
                                                                                                    
                                                                                                    
                                                                                                    
                                                                                                    
                                                                                                    
                                                                                                    
                                                                                                    
                                                                                                    
                                                                                                    
                                                                                                    
                                                                                                    
                           
<?xpacket end="w"?></metadata>
<defs>
    <style>
      .cls-1 {
        fill: #4876c3;
        fill-rule: evenodd;
      }
    </style>
  </defs>
  <path id="Forma_1" data-name="Forma 1" class="cls-1" d="M1301.77,6699.87a0.347,0.347,0,0,0,.51-0.25c0.05-.18.15-0.62,0.21-0.81a0.5,0.5,0,0,0-.15-0.56,2.9,2.9,0,0,1-.67-1.98,4.774,4.774,0,0,1,4.96-4.82c2.71,0,4.19,1.65,4.19,3.86,0,2.91-1.28,5.36-3.19,5.36a1.561,1.561,0,0,1-1.59-1.94,21.081,21.081,0,0,0,.89-3.58,1.348,1.348,0,0,0-1.36-1.51c-1.07,0-1.94,1.11-1.94,2.61a3.861,3.861,0,0,0,.32,1.59s-1.1,4.67-1.3,5.49a11.683,11.683,0,0,0-.03,3.83,0.138,0.138,0,0,0,.25.05,10.708,10.708,0,0,0,1.81-3.29c0.13-.45.71-2.77,0.71-2.77a2.874,2.874,0,0,0,2.46,1.25c3.24,0,5.44-2.95,5.44-6.9,0-2.98-2.53-5.77-6.38-5.77-4.79,0-7.2,3.43-7.2,6.29C1299.71,6697.76,1300.37,6699.3,1301.77,6699.87ZM1293,6685v27h27v-27h-27Zm25.33,25.33h-23.66v-23.66h23.66v23.66Z" transform="translate(-1293 -6685)"/>
</svg>
