<svg xmlns="http://www.w3.org/2000/svg" width="27" height="27" viewBox="0 0 27 27">
  <metadata><?xpacket begin="﻿" id="W5M0MpCehiHzreSzNTczkc9d"?>
<x:xmpmeta xmlns:x="adobe:ns:meta/" x:xmptk="Adobe XMP Core 5.6-c138 79.159824, 2016/09/14-01:09:01        ">
   <rdf:RDF xmlns:rdf="http://www.w3.org/1999/02/22-rdf-syntax-ns#">
      <rdf:Description rdf:about=""/>
   </rdf:RDF>
</x:xmpmeta>
                                                                                                    
                                                                                                    
                                                                                                    
                                                                                                    
                                                                                                    
                                                                                                    
                                                                                                    
                                                                                                    
                                                                                                    
                                                                                                    
                                                                                                    
                                                                                                    
                                                                                                    
                                                                                                    
                                                                                                    
                                                                                                    
                                                                                                    
                                                                                                    
                                                                                                    
                                                                                                    
                           
<?xpacket end="w"?></metadata>
<defs>
    <style>
      .cls-1 {
        fill: #4876c3;
        fill-rule: evenodd;
      }
    </style>
  </defs>
  <path id="Forma_1" data-name="Forma 1" class="cls-1" d="M1192.06,6700.36a7.949,7.949,0,0,0,2.46,2.3,6.459,6.459,0,0,0,3.65.79,0.681,0.681,0,0,0,.82-0.79,2.593,2.593,0,0,1,.27-1.19,0.539,0.539,0,0,1,.85-0.21,3,3,0,0,1,.46.41c0.34,0.38.66,0.76,1.02,1.12a1.953,1.953,0,0,0,1.62.66h2.56a0.636,0.636,0,0,0,.39-0.99,4.976,4.976,0,0,0-.62-0.88,21.593,21.593,0,0,0-1.72-1.73,0.875,0.875,0,0,1-.13-1.4c0.46-.65.95-1.26,1.42-1.91a6.988,6.988,0,0,0,1.1-1.91,0.48,0.48,0,0,0-.45-0.74,2.008,2.008,0,0,0-.25-0.01l-2.78-.01a0.63,0.63,0,0,0-.65.45c-0.16.41-.33,0.82-0.52,1.21a10.157,10.157,0,0,1-1.63,2.5,0.581,0.581,0,0,1-.58.29,0.95,0.95,0,0,1-.4-0.82l-0.01-3.21a0.681,0.681,0,0,0-.61-0.75h-2.89a0.931,0.931,0,0,0-.79.39c-0.11.14-.15,0.23,0.09,0.27a0.958,0.958,0,0,1,.82.88,9.4,9.4,0,0,1,.04,2.31,1.857,1.857,0,0,1-.14.66,0.391,0.391,0,0,1-.66.2,2.7,2.7,0,0,1-.64-0.71,15.137,15.137,0,0,1-1.7-3.14,0.735,0.735,0,0,0-.69-0.52c-0.84-.01-1.67-0.01-2.5,0-0.5.01-.65,0.26-0.45,0.71A31.138,31.138,0,0,0,1192.06,6700.36ZM1184,6685v27h27v-27h-27Zm25.33,25.33h-23.66v-23.66h23.66v23.66Z" transform="translate(-1184 -6685)"/>
</svg>
