<svg xmlns="http://www.w3.org/2000/svg" width="12" height="11" viewBox="0 0 12 11">
  <metadata><?xpacket begin="﻿" id="W5M0MpCehiHzreSzNTczkc9d"?>
<x:xmpmeta xmlns:x="adobe:ns:meta/" x:xmptk="Adobe XMP Core 5.6-c138 79.159824, 2016/09/14-01:09:01        ">
   <rdf:RDF xmlns:rdf="http://www.w3.org/1999/02/22-rdf-syntax-ns#">
      <rdf:Description rdf:about=""/>
   </rdf:RDF>
</x:xmpmeta>
                                                                                                    
                                                                                                    
                                                                                                    
                                                                                                    
                                                                                                    
                                                                                                    
                                                                                                    
                                                                                                    
                                                                                                    
                                                                                                    
                                                                                                    
                                                                                                    
                                                                                                    
                                                                                                    
                                                                                                    
                                                                                                    
                                                                                                    
                                                                                                    
                                                                                                    
                                                                                                    
                           
<?xpacket end="w"?></metadata>
<defs>
    <style>
      .cls-1 {
        fill: #4876c3;
        fill-rule: evenodd;
      }
    </style>
  </defs>
  <path id="Forma_1" data-name="Forma 1" class="cls-1" d="M411.823,4565.95a0.615,0.615,0,0,0-.854,0l-5.422,5.36-2.5-2.47a0.616,0.616,0,0,0-.855,0,0.6,0.6,0,0,0,0,.85l2.925,2.89a0.6,0.6,0,0,0,.855,0l5.849-5.78A0.6,0.6,0,0,0,411.823,4565.95Zm-1.305,3.83a0.6,0.6,0,0,0-.6.6v4.42h-8.706v-8.61H408.1a0.6,0.6,0,0,0,.6-0.59,0.6,0.6,0,0,0-.6-0.6h-7.5a0.6,0.6,0,0,0-.6.6v9.8a0.6,0.6,0,0,0,.6.6h9.914a0.6,0.6,0,0,0,.605-0.6v-5.02A0.6,0.6,0,0,0,410.518,4569.78Z" transform="translate(-400 -4565)"/>
</svg>
