<svg xmlns="http://www.w3.org/2000/svg" width="16" height="15.969" viewBox="0 0 16 15.969">
  <metadata><?xpacket begin="﻿" id="W5M0MpCehiHzreSzNTczkc9d"?>
<x:xmpmeta xmlns:x="adobe:ns:meta/" x:xmptk="Adobe XMP Core 5.6-c138 79.159824, 2016/09/14-01:09:01        ">
   <rdf:RDF xmlns:rdf="http://www.w3.org/1999/02/22-rdf-syntax-ns#">
      <rdf:Description rdf:about=""/>
   </rdf:RDF>
</x:xmpmeta>
                                                                                                    
                                                                                                    
                                                                                                    
                                                                                                    
                                                                                                    
                                                                                                    
                                                                                                    
                                                                                                    
                                                                                                    
                                                                                                    
                                                                                                    
                                                                                                    
                                                                                                    
                                                                                                    
                                                                                                    
                                                                                                    
                                                                                                    
                                                                                                    
                                                                                                    
                                                                                                    
                           
<?xpacket end="w"?></metadata>
<defs>
    <style>
      .cls-1 {
        fill: #2c3d50;
        fill-rule: evenodd;
      }
    </style>
  </defs>
  <path id="Forma_1" data-name="Forma 1" class="cls-1" d="M597.639,44.66l-2.47-2.478a1.286,1.286,0,0,0-1.816.035l-1.245,1.248-0.245-.137A11.678,11.678,0,0,1,586.7,38.15c-0.046-.084-0.09-0.164-0.134-0.241l0.835-.836,0.411-.413a1.292,1.292,0,0,0,.033-1.821l-2.47-2.478a1.284,1.284,0,0,0-1.816.034l-0.7.7,0.019,0.019a4.02,4.02,0,0,0-.574,1.015,4.206,4.206,0,0,0-.255,1.029c-0.326,2.711.909,5.19,4.263,8.553,4.635,4.648,8.371,4.3,8.532,4.279a4.158,4.158,0,0,0,1.029-.259,4,4,0,0,0,1.009-.573l0.015,0.014,0.705-.692A1.3,1.3,0,0,0,597.639,44.66Z" transform="translate(-582 -32.031)"/>
</svg>
