<svg xmlns="http://www.w3.org/2000/svg" width="33" height="33" viewBox="0 0 33 33">
  <metadata><?xpacket begin="﻿" id="W5M0MpCehiHzreSzNTczkc9d"?>
<x:xmpmeta xmlns:x="adobe:ns:meta/" x:xmptk="Adobe XMP Core 5.6-c138 79.159824, 2016/09/14-01:09:01        ">
   <rdf:RDF xmlns:rdf="http://www.w3.org/1999/02/22-rdf-syntax-ns#">
      <rdf:Description rdf:about=""/>
   </rdf:RDF>
</x:xmpmeta>
                                                                                                    
                                                                                                    
                                                                                                    
                                                                                                    
                                                                                                    
                                                                                                    
                                                                                                    
                                                                                                    
                                                                                                    
                                                                                                    
                                                                                                    
                                                                                                    
                                                                                                    
                                                                                                    
                                                                                                    
                                                                                                    
                                                                                                    
                                                                                                    
                                                                                                    
                                                                                                    
                           
<?xpacket end="w"?></metadata>
<defs>
    <style>
      .cls-1 {
        fill: #102842;
        fill-rule: evenodd;
      }
    </style>
  </defs>
  <path id="_1" data-name="1" class="cls-1" d="M146,1386.3c-0.033-2.81-1.466-4.35-4.036-4.35a8.81,8.81,0,0,0-2.58.43c0.062-1.15.063-1.85,0.063-1.89V1380H119.553v0.49c0,0.02,0,.73.065,1.89a8.825,8.825,0,0,0-2.582-.43c-2.57,0-4,1.54-4.036,4.35a13.484,13.484,0,0,0,1.868,7.29,11.9,11.9,0,0,0,3.963,3.95,9.339,9.339,0,0,0,4.77,1.3,7.5,7.5,0,0,0,.839-0.04,0.09,0.09,0,0,0,.05-0.01,7.6,7.6,0,0,0,1.854,1.49,1.919,1.919,0,0,1,.943,1.28,1.617,1.617,0,0,0,.044,3.1v2.06h-2.652v2.14h-2.617V1413h14.876v-4.14h-2.617v-2.14h-2.652v-2.06a1.617,1.617,0,0,0,.045-3.1,1.921,1.921,0,0,1,.942-1.28,7.589,7.589,0,0,0,1.855-1.49,6.461,6.461,0,0,0,.888.05h0a9.339,9.339,0,0,0,4.77-1.3,11.907,11.907,0,0,0,3.963-3.95A13.484,13.484,0,0,0,146,1386.3Zm-7.541-5.32c0,0.18-.011.4-0.022,0.67H120.565c-0.011-.27-0.018-0.49-0.023-0.67h17.917Zm0.667,4.5a7.747,7.747,0,0,1,2.295-.44,1.735,1.735,0,0,1,1.384.47,2.225,2.225,0,0,1,.3,1.78c-0.474,3.45-1.97,6.15-4.213,7.59a5.286,5.286,0,0,1-2.327.78A33.579,33.579,0,0,0,139.126,1385.48Zm-18.747,3.41a28.065,28.065,0,0,0,1.978,6.6c0.026,0.06.052,0.11,0.078,0.17a5.286,5.286,0,0,1-2.326-.78c-2.243-1.44-3.739-4.14-4.213-7.59a2.225,2.225,0,0,1,.3-1.78,1.735,1.735,0,0,1,1.384-.47,7.76,7.76,0,0,1,2.3.44C120,1386.54,120.157,1387.7,120.379,1388.89Zm3.222,8.97a8.3,8.3,0,0,1-4.264-1.16c-1.636-.99-5.432-3.97-5.357-10.39,0.027-2.27,1.027-3.38,3.056-3.38a8.566,8.566,0,0,1,2.648.5c0.024,0.33.052,0.66,0.082,0.99a7.884,7.884,0,0,0-2.187-.36,2.69,2.69,0,0,0-2.122.8,3.141,3.141,0,0,0-.532,2.57,13.748,13.748,0,0,0,1.639,5.04,9.234,9.234,0,0,0,3.015,3.23,6.545,6.545,0,0,0,3.383.97c0,0.01.007,0.01,0.01,0.02,0.05,0.09.1,0.17,0.152,0.26,0.016,0.03.032,0.05,0.048,0.08l0.147,0.24a0.553,0.553,0,0,1,.057.08c0.034,0.05.068,0.11,0.1,0.16s0.066,0.09.1,0.14a1.7,1.7,0,0,0,.1.14,0.369,0.369,0,0,0,.046.07H123.6Zm12.357,11.98v2.18H123.043v-2.18h12.915Zm-4.289-2.14h1.672v1.16H125.66v-1.16h6.009Zm-3.358-.98v-2h2.378v2h-2.378Zm3.558-3.61a0.637,0.637,0,0,1-.634.63h-3.469a0.635,0.635,0,1,1,0-1.27h3.469A0.639,0.639,0,0,1,131.869,1403.11Zm2.452-5.61a0.039,0.039,0,0,1-.016.02c-0.049.07-.1,0.13-0.146,0.19-0.012.01-.024,0.03-0.036,0.04-0.054.07-.108,0.13-0.162,0.19,0,0-.005.01-0.008,0.01a6.8,6.8,0,0,1-1.773,1.47,2.913,2.913,0,0,0-1.451,2.07h-2.458a2.912,2.912,0,0,0-1.45-2.07,6.666,6.666,0,0,1-1.654-1.33l-0.12-.14a10.81,10.81,0,0,1-1.365-2l-0.128-.24c-2.108-4.07-2.745-9.95-2.938-13.08h17.772c-0.009.13-.018,0.28-0.027,0.42l0,0.02c-0.011.16-.022,0.32-0.035,0.48a0.034,0.034,0,0,1,0,.01c-0.039.5-.085,1.01-0.138,1.51l-0.032.3a31.209,31.209,0,0,1-2.695,10.32l-0.14.26A12.162,12.162,0,0,1,134.321,1397.5Zm5.342-.8a8.3,8.3,0,0,1-4.264,1.16h-0.12l0.188-.27,0.022-.03c0.052-.08.1-0.16,0.155-0.24l0.039-.06c0.056-.09.112-0.17,0.166-0.26,0.009-.02.017-0.03,0.025-0.05,0.045-.07.089-0.15,0.133-0.22l0.031-.06a6.449,6.449,0,0,0,3.383-.97,9.234,9.234,0,0,0,3.015-3.23,13.748,13.748,0,0,0,1.639-5.04,3.144,3.144,0,0,0-.531-2.57,2.691,2.691,0,0,0-2.123-.8,7.884,7.884,0,0,0-2.187.36c0.031-.34.057-0.66,0.08-0.96,0-.01,0-0.02,0-0.03a8.566,8.566,0,0,1,2.648-.5c2.029,0,3.029,1.11,3.056,3.38C145.1,1392.73,141.3,1395.71,139.663,1396.7Zm-14.265-.83-0.819.54a9.415,9.415,0,0,0,.893,1.15l0.717-.67A7.9,7.9,0,0,1,125.4,1395.87Zm-2.1-5.43-0.956.21a19.1,19.1,0,0,0,1.865,5.14l0.852-.48A18.237,18.237,0,0,1,123.294,1390.44Zm18.3,11.06v-0.98h-0.828v-0.83h-0.981v0.83h-0.827v0.98h0.828v0.82h0.98v-0.82H141.6Zm-21.327,5.09v-0.98h-0.7v-0.7h-0.981v0.7H117.9v0.98h0.694v0.69h0.98v-0.69h0.7Zm-4.122-8.02h0.925v0.98h-0.925v-0.98Zm5.943,2.9h0.925v0.98H122.09v-0.98Zm14.9,2.95h0.925v0.98h-0.925v-0.98Z" transform="translate(-113 -1380)"/>
</svg>
