<svg xmlns="http://www.w3.org/2000/svg" width="33" height="33" viewBox="0 0 33 33">
  <metadata><?xpacket begin="﻿" id="W5M0MpCehiHzreSzNTczkc9d"?>
<x:xmpmeta xmlns:x="adobe:ns:meta/" x:xmptk="Adobe XMP Core 5.6-c138 79.159824, 2016/09/14-01:09:01        ">
   <rdf:RDF xmlns:rdf="http://www.w3.org/1999/02/22-rdf-syntax-ns#">
      <rdf:Description rdf:about=""/>
   </rdf:RDF>
</x:xmpmeta>
                                                                                                    
                                                                                                    
                                                                                                    
                                                                                                    
                                                                                                    
                                                                                                    
                                                                                                    
                                                                                                    
                                                                                                    
                                                                                                    
                                                                                                    
                                                                                                    
                                                                                                    
                                                                                                    
                                                                                                    
                                                                                                    
                                                                                                    
                                                                                                    
                                                                                                    
                                                                                                    
                           
<?xpacket end="w"?></metadata>
<defs>
    <style>
      .cls-1 {
        fill: #102842;
        fill-rule: evenodd;
      }
    </style>
  </defs>
  <path id="_2" data-name="2" class="cls-1" d="M378.522,1386.6H377.14a2.972,2.972,0,0,0-2.882,2.25l-0.812,3.25h11.308l-0.812-3.25a2.972,2.972,0,0,0-2.882-2.25h-1.438a7.152,7.152,0,0,0-7.122-6.6h-3.85a9.91,9.91,0,0,0-9.9,9.9v19.8H356v3.3h6.6v-3.3h-2.75v-19.8a8.812,8.812,0,0,1,8.8-8.8h3.85A6.055,6.055,0,0,1,378.522,1386.6Zm4.353,2.52,0.471,1.88h-8.492l0.47-1.88a1.867,1.867,0,0,1,1.817-1.42h3.919A1.865,1.865,0,0,1,382.875,1389.12ZM361.5,1410.8v1.1h-4.4v-1.1h4.4Zm26.117-15.95h-1.635a1.383,1.383,0,0,0-1.382,1.38v0.29a3.6,3.6,0,0,0-3.3,3.59v1.34h-6.545a1.7,1.7,0,0,0-1.7,1.7v8.2h1.1V1413h3.3v-1.65h7.15V1413h3.3v-1.65H389v-15.12A1.383,1.383,0,0,0,387.617,1394.85Zm-5.217,5.26a2.51,2.51,0,0,1,2.2-2.49v3.83h-2.2v-1.34Zm-6.05,11.79h-1.1v-0.55h1.1v0.55Zm10.45,0h-1.1v-0.55h1.1v0.55Zm1.1-1.65H374.15v-7.1a0.6,0.6,0,0,1,.605-0.6H387.9v7.7Zm-2.2-8.8v-5.22a0.284,0.284,0,0,1,.283-0.28h1.635a0.285,0.285,0,0,1,.282.28v5.22h-2.2Z" transform="translate(-356 -1380)"/>
</svg>
