<svg xmlns="http://www.w3.org/2000/svg" width="37" height="33" viewBox="0 0 37 33">
  <metadata><?xpacket begin="﻿" id="W5M0MpCehiHzreSzNTczkc9d"?>
<x:xmpmeta xmlns:x="adobe:ns:meta/" x:xmptk="Adobe XMP Core 5.6-c138 79.159824, 2016/09/14-01:09:01        ">
   <rdf:RDF xmlns:rdf="http://www.w3.org/1999/02/22-rdf-syntax-ns#">
      <rdf:Description rdf:about=""/>
   </rdf:RDF>
</x:xmpmeta>
                                                                                                    
                                                                                                    
                                                                                                    
                                                                                                    
                                                                                                    
                                                                                                    
                                                                                                    
                                                                                                    
                                                                                                    
                                                                                                    
                                                                                                    
                                                                                                    
                                                                                                    
                                                                                                    
                                                                                                    
                                                                                                    
                                                                                                    
                                                                                                    
                                                                                                    
                                                                                                    
                           
<?xpacket end="w"?></metadata>
<defs>
    <style>
      .cls-1 {
        fill: #102842;
        fill-rule: evenodd;
      }
    </style>
  </defs>
  <path id="_3" data-name="3" class="cls-1" d="M623.468,1414H587.532a0.535,0.535,0,0,1-.532-0.54v-31.92a0.535,0.535,0,0,1,.532-0.54h32.252a0.535,0.535,0,0,1,.531.54v15.91h3.153a0.535,0.535,0,0,1,.532.54v15.47A0.535,0.535,0,0,1,623.468,1414Zm-26.793-1.08h26.262v-14.39H611.943a0.535,0.535,0,0,1-.532-0.54v-1.03H610.1a0.541,0.541,0,0,1-.532-0.54,0.535,0.535,0,0,1,.532-0.54h1.312v-3.48a0.532,0.532,0,1,1,1.063,0v5.05h3.09v-15.37h-3.09v3.93a0.532,0.532,0,1,1-1.063,0v-1.65h-8.356a0.535,0.535,0,0,1-.532-0.54v-1.74h-1.941v2.5a0.532,0.532,0,0,1-1.063,0v-2.5h-0.575v1.38a0.535,0.535,0,0,1-.532.54h-0.166a1.8,1.8,0,0,1,.148.72v1.4a1.772,1.772,0,1,1-3.544,0v-1.4A1.8,1.8,0,0,1,595,1384h-0.165a0.535,0.535,0,0,1-.532-0.54v-1.38h-1.932v7.13a0.532,0.532,0,0,1-.531.53h-0.691v3.03h8.372v-2.49a0.532,0.532,0,1,1,1.063,0v5.6H601.9a0.535,0.535,0,0,1,.531.54,0.541,0.541,0,0,1-.531.54h-1.313v2.63a0.532,0.532,0,1,1-1.063,0v-5.75h-7.593v15.46h4.218a0.535,0.535,0,0,1,.531.54v3.08Zm-8.612,0h7.549v-2.54H591.4a0.541,0.541,0,0,1-.532-0.54v-9.37h-2.8v12.45Zm0-13.52h2.8v-5.56h-2.8v5.56Zm30.408-1.95h0.781v-15.37h-0.781v15.37Zm-1.844,0h0.781v-15.37h-0.781v15.37Zm-28.564-4.87h2.02v-2.84h-2.02v2.84Zm2.552-3.91h0.691v-6.59h-3.243v6.59h2.552Zm6.007-4.67a0.713,0.713,0,0,0-.709.72v1.4a0.709,0.709,0,1,0,1.418,0v-1.4A0.713,0.713,0,0,0,596.622,1384Zm6.964-.72h7.825v-1.2h-7.825v1.2Zm-6.964-.35h1.258v-0.85h-2.516v0.85h1.258Zm11.633,28.4h-4.262a0.535,0.535,0,0,1-.532-0.54v-9.86a0.535,0.535,0,0,1,.532-0.54h4.262a0.535,0.535,0,0,1,.532.54v9.86A0.535,0.535,0,0,1,608.255,1411.33Zm-3.731-1.08h3.2v-0.54h-1.886a0.535,0.535,0,0,1-.532-0.54v-6.63a0.535,0.535,0,0,1,.532-0.54h1.886v-0.54h-3.2v8.79Zm1.844-1.62h1.355v-5.55h-1.355v5.55Zm13.416,2.37a0.535,0.535,0,0,1-.532-0.54v-9.25a0.532,0.532,0,1,1,1.063,0v1.67a0.533,0.533,0,0,1,.495.53v4.85a0.542,0.542,0,0,1-.495.54v1.66A0.535,0.535,0,0,1,619.784,1411Zm-5.125-.64c-1.691,0-3.015-1.85-3.015-4.2s1.324-4.2,3.015-4.2,3.015,1.84,3.015,4.2S616.349,1410.36,614.659,1410.36Zm0-7.32c-1.058,0-1.952,1.43-1.952,3.12s0.894,3.12,1.952,3.12,1.952-1.43,1.952-3.12S615.717,1403.04,614.659,1403.04Z" transform="translate(-587 -1381)"/>
</svg>
